<!DOCTYPE svg PUBLIC "-//W3C//DTD SVG 1.1//EN" "http://www.w3.org/Graphics/SVG/1.1/DTD/svg11.dtd">
<!-- Uploaded to: SVG Repo, www.svgrepo.com, Transformed by: SVG Repo Mixer Tools -->
<svg fill="#000000" width="64px" height="64px" viewBox="-3.2 -3.2 38.40 38.40" version="1.1" xmlns="http://www.w3.org/2000/svg" stroke="#000000" stroke-width="0.8960000000000001" transform="matrix(1, 0, 0, 1, 0, 0)rotate(0)">
<g id="SVGRepo_bgCarrier" stroke-width="0">
<path transform="translate(-3.2, -3.2), scale(1.2)" d="M16,30.8758754581213C18.91644467861179,30.134868268543844,20.217267206531268,26.897077237805263,22.45783203054416,24.88844325228063C24.379560402602795,23.165641538313494,27.288642070582874,22.379651090832176,28.179311920047383,19.957298329387612C29.07914107553707,17.510035024203013,27.591898051432274,14.960643553826488,27.045614259888183,12.411062369971274C26.418408213093446,9.483805951126914,26.742141352365824,6.190937013685059,24.750732637591092,3.9556498067425956C22.569144136364805,1.5068923862170305,19.221694748497605,-0.6007907222177051,16.000000000000004,0.012743499130010605C12.79660323576746,0.6227930826070753,11.925322550566076,4.849467466419922,9.37647376958584,6.88349824669136C7.015743709327294,8.767406637926424,2.857568211381986,8.559142890873037,1.763024437892275,11.374126225084645C0.6733455478280259,14.17659789361668,3.5591179737037506,16.88375452942053,4.361318986416318,19.7816366994853C5.218785526931741,22.879160835966417,4.291766882777731,26.695376540172866,6.618181858901371,28.91296487055662C8.988837063245157,31.17272392922462,12.825721071835988,31.68239290202954,16,30.8758754581213" fill="#aae2f8" strokewidth="0"/>
</g>
<g id="SVGRepo_tracerCarrier" stroke-linecap="round" stroke-linejoin="round" stroke="#CCCCCC" stroke-width="0.064"/>
<g id="SVGRepo_iconCarrier"> <path d="M26.033 2.019h-2.015v6.731c0 3.262-1.77 5.73-5.566 7.662 3.939 1.994 5.597 4.442 5.597 8.096 0 2.379-0.011 4.375-0.018 5.473h2.002c0.552 0 1 0.447 1 0.999s-0.448 1-1 1h-20.067c-0.553 0-1-0.448-1-1s0.447-0.999 1-0.999h2.060c-0.008-1.098-0.018-3.094-0.018-5.473 0-3.654 1.634-6.101 5.567-8.095-3.788-1.933-5.536-4.4-5.536-7.662v-6.732h-2.074c-0.553 0-1-0.447-1-1s0.447-1 1-1h20.067c0.552 0 1 0.448 1 1s-0.447 1-1 1zM10.008 24.509c0 2.384 0.011 4.382 0.019 5.473h12.005c0.007-1.091 0.018-3.089 0.018-5.473 0-2.782-1.035-4.939-6.037-7.012-5 2.074-6.005 4.231-6.005 7.012zM22.019 2.019h-11.98v6.731c0 1.918 0.645 4.388 5.974 6.579 5.33-2.191 6.006-4.661 6.006-6.579v-6.731z"/> </g>
</svg>